<?xml version="1.0" standalone="no"?>
<!DOCTYPE svg PUBLIC "-//W3C//DTD SVG 1.1//EN" "http://www.w3.org/Graphics/SVG/1.1/DTD/svg11.dtd" >
<svg xmlns="http://www.w3.org/2000/svg">
<metadata></metadata>
<defs>
<font id="cernregular" horiz-adv-x="1189" >
<font-face units-per-em="2048" ascent="1638" descent="-410" />
<missing-glyph horiz-adv-x="544" />
<glyph horiz-adv-x="0" />
<glyph horiz-adv-x="0" />
<glyph horiz-adv-x="682" />
<glyph unicode="&#xd;" horiz-adv-x="544" />
<glyph unicode=" "  horiz-adv-x="544" />
<glyph unicode="&#x09;" horiz-adv-x="544" />
<glyph unicode="&#xa0;" horiz-adv-x="544" />
<glyph unicode="!" horiz-adv-x="620" d="M184 1456h287l-49 -1007h-201zM190 0v299h277v-299h-277z" />
<glyph unicode="&#x22;" horiz-adv-x="929" d="M119 1454h268v-268l-33 -334h-202l-31 334zM545 1454h266v-268l-33 -334h-200l-31 334z" />
<glyph unicode="#" horiz-adv-x="1382" d="M84 350v207h238l43 293h-218v205h250l56 350h227l-53 -350h252l53 350h229l-53 -350h192v-205h-225l-43 -293h201v-207h-236l-51 -350h-229l51 350h-250l-53 -350h-229l53 350h-205zM551 557h250l47 293h-252z" />
<glyph unicode="$" d="M49 459h270q3 -107 61 -170.5t152 -75.5v399q-454 55 -454 422q0 163 124 279.5t330 134.5v188h142v-192q105 -10 188 -51t134.5 -102.5t80 -133.5t33.5 -151l-260 2q-9 91 -54 146.5t-122 70.5v-375q113 -22 191.5 -51.5t142 -78t94.5 -123t31 -177.5 q0 -180 -125 -297.5t-334 -134.5v-199h-142v199q-215 18 -346 141.5t-137 329.5zM344 1049q0 -80 47 -119.5t141 -55.5v355q-88 -9 -138 -58.5t-50 -121.5zM674 211q188 28 188 199q0 71 -48.5 113t-139.5 65v-377z" />
<glyph unicode="%" horiz-adv-x="1921" d="M76 1038q0 196 99 309t267 113q169 0 267 -112.5t98 -309.5q0 -196 -97 -306.5t-268 -110.5q-170 0 -268 111t-98 306zM297 1038q0 -115 33 -172t112 -57t112.5 57t33.5 172q0 117 -33.5 175.5t-112.5 58.5t-112 -58t-33 -176zM389 -16q156 252 462.5 752.5t436.5 711.5 h242l-27 -55q-146 -235 -437 -706.5t-437 -706.5zM1106 391q0 198 99 310t265 112q170 0 268.5 -112.5t98.5 -309.5q0 -196 -96.5 -307t-270.5 -111q-170 0 -267 110.5t-97 307.5zM1325 391q0 -114 34 -171.5t111 -57.5q79 0 113.5 57t34.5 172q0 117 -34.5 175.5 t-113.5 58.5q-77 0 -111 -58.5t-34 -175.5z" />
<glyph unicode="&#x26;" horiz-adv-x="1445" d="M98 397q0 136 74 232.5t207 175.5q-72 81 -111 154.5t-39 162.5q0 160 110 259.5t279 99.5q175 0 284.5 -95t109.5 -251q0 -125 -71.5 -215t-201.5 -166q43 -49 129 -146.5t129 -146.5q34 68 50.5 155t5.5 160h215q12 -297 -111 -497q218 -244 250 -279h-320 q-25 27 -90 100q-164 -135 -389 -135q-242 0 -376 121.5t-134 310.5zM358 422q0 -108 70.5 -171t198.5 -63q144 0 223 76q-42 47 -332 379q-78 -47 -119 -96t-41 -125zM475 1122q0 -90 127 -217q79 45 122.5 93.5t43.5 125.5q0 70 -39 109t-106 39q-66 0 -107 -39t-41 -111z " />
<glyph unicode="'" horiz-adv-x="493" d="M119 1454h268v-268l-33 -334h-202l-31 334z" />
<glyph unicode="(" horiz-adv-x="641" d="M66 637q0 532 309 936h215q-268 -414 -268 -936q0 -519 270 -936h-217q-309 404 -309 936z" />
<glyph unicode=")" horiz-adv-x="641" d="M68 -299h217q309 404 309 936t-309 936h-215q268 -414 268 -936q0 -519 -270 -936z" />
<glyph unicode="*" horiz-adv-x="962" d="M61 1073l80 221l254 -123l-35 289h242l-37 -291l254 125l82 -221l-280 -69l204 -230l-190 -137l-154 256l-153 -258l-191 139l205 230z" />
<glyph unicode="+" horiz-adv-x="1300" d="M117 549v233h411v432h244v-432h414v-233h-414v-451h-244v451h-411z" />
<glyph unicode="," horiz-adv-x="550" d="M125 0v309h301v-284q0 -142 -48 -229.5t-177 -141.5l-72 119q82 38 111.5 89t29.5 138h-145z" />
<glyph unicode="-" horiz-adv-x="872" d="M106 494v256h658v-256h-658z" />
<glyph unicode="." horiz-adv-x="550" d="M125 0v326h301v-326h-301z" />
<glyph unicode="/" horiz-adv-x="790" d="M6 -12l551 1503h238l-551 -1503h-238z" />
<glyph unicode="0" d="M55 705q0 343 137.5 534t399.5 191q260 0 396 -192t136 -540q0 -346 -135.5 -537.5t-398.5 -191.5q-262 0 -398.5 192.5t-136.5 543.5zM342 698q0 -83 5.5 -150.5t22 -136.5t43 -115.5t72.5 -76t107 -29.5q60 0 105 29.5t71.5 76t42.5 116t21.5 137.5t5.5 151 q0 84 -5.5 152.5t-22 138t-43 117t-72.5 77t-107 29.5q-246 0 -246 -516z" />
<glyph unicode="1" d="M211 948v199q167 3 264.5 63t124.5 199h234v-1409h-277v948h-346z" />
<glyph unicode="2" d="M113 0q3 139 25.5 232t74.5 167q48 70 115 128t186 135q75 49 118.5 82t82 74.5t55 86t16.5 99.5q0 91 -50 147.5t-144 56.5q-104 0 -156.5 -82t-54.5 -213h-248q3 252 127 384.5t340 132.5q193 0 318.5 -116.5t125.5 -309.5q0 -159 -83 -270t-252 -216 q-55 -33 -84 -51.5t-65.5 -43.5t-55 -43.5t-39 -43t-32.5 -50.5t-21 -59h645v-227h-944z" />
<glyph unicode="3" d="M72 455h262q5 -125 68.5 -199t177.5 -74q101 0 167 60t66 157q0 100 -57 151.5t-156 59.5q-50 4 -74 4q-6 0 -16 -1t-16 -1v211h43q117 0 184 50t67 145q0 87 -53.5 139.5t-152.5 52.5q-105 0 -162.5 -69t-57.5 -187h-264q8 219 136.5 347.5t351.5 128.5 q201 0 334 -106.5t133 -287.5q0 -107 -61 -188.5t-165 -112.5v-2q127 -28 197 -117.5t70 -220.5q0 -200 -143 -316t-369 -116q-232 0 -370.5 128.5t-139.5 363.5z" />
<glyph unicode="4" d="M55 315v236q100 145 277 431t274 427h318v-868h217v-226h-217v-315h-269v315h-600zM295 541h360v583h-4q-67 -99 -178.5 -292.5t-177.5 -290.5z" />
<glyph unicode="5" d="M106 408h267q9 -96 71 -155.5t158 -59.5q102 0 167 77t65 199q0 116 -66.5 191t-169.5 75q-144 0 -213 -135h-250q4 34 28 222t46 359.5t27 221.5h790v-225h-586q-19 -140 -51 -347l2 -2q106 121 281 121q191 0 312.5 -134.5t121.5 -346.5q0 -215 -140.5 -355.5 t-363.5 -140.5q-210 0 -348.5 117.5t-147.5 317.5z" />
<glyph unicode="6" d="M98 680q0 128 20.5 240t64 206.5t107 162t154 105.5t199.5 38q190 0 309.5 -107t134.5 -295h-264q-11 89 -60.5 141t-129.5 52q-85 0 -146.5 -60.5t-90 -150.5t-31.5 -199v-57q58 85 136 124.5t185 39.5q187 0 306.5 -130.5t119.5 -328.5q0 -101 -34 -190t-95.5 -156.5 t-155 -106.5t-206.5 -39q-109 0 -197 37t-148.5 101t-100.5 154.5t-58.5 195t-18.5 223.5zM397 453q0 -110 63 -186.5t165 -76.5q99 0 160 74.5t61 181.5q0 114 -60 189.5t-163 75.5t-164.5 -73t-61.5 -185z" />
<glyph unicode="7" d="M111 1165v236h970v-221q-157 -177 -281 -455.5t-182 -574.5q-17 -89 -20 -150h-303q38 303 175 617t327 548h-686z" />
<glyph unicode="8" d="M82 395q0 134 73 224.5t205 121.5v2q-110 29 -172.5 111.5t-62.5 198.5q0 170 134.5 273.5t332.5 103.5q112 0 203.5 -32t148.5 -85.5t88 -120.5t31 -141q0 -113 -60.5 -194.5t-168.5 -113.5q274 -91 274 -348q0 -131 -67.5 -227.5t-181.5 -145.5t-259 -49 q-228 0 -373 112t-145 310zM354 410q0 -100 69.5 -163t174.5 -63q102 0 169 63.5t67 162.5q0 96 -68 158.5t-170 62.5q-105 0 -173.5 -60.5t-68.5 -160.5zM383 1024q0 -88 60 -138t153 -50t152 51.5t59 138.5q0 81 -56.5 136t-154.5 55q-93 0 -153 -52.5t-60 -140.5z" />
<glyph unicode="9" d="M80 950q0 210 136 345t351 135q255 0 390 -187t135 -520q0 -226 -57.5 -392.5t-178.5 -262t-295 -95.5q-196 0 -319 106t-138 294h263q11 -87 64 -140t132 -53q86 0 146 61.5t87 161.5t27 230q0 14 -2 22q-105 -163 -309 -163q-190 0 -311 130t-121 328zM348 956 q0 -105 61.5 -178t157.5 -73q103 0 165.5 71t62.5 178q0 110 -63 185t-165 75q-101 0 -160 -74t-59 -184z" />
<glyph unicode=":" horiz-adv-x="579" d="M150 0v319h301v-319h-301zM150 748v319h301v-319h-301z" />
<glyph unicode=";" horiz-adv-x="579" d="M150 0v309h301v-284q0 -142 -48.5 -229.5t-177.5 -141.5l-71 119q82 38 111.5 89t29.5 138h-145zM150 748v319h301v-319h-301z" />
<glyph unicode="&#x3c;" horiz-adv-x="1083" d="M150 555v219l798 543v-256l-598 -383l604 -389l-2 -250z" />
<glyph unicode="=" horiz-adv-x="1312" d="M170 307v225h971v-225h-971zM170 737v224h971v-224h-971z" />
<glyph unicode="&#x3e;" horiz-adv-x="1083" d="M152 289l2 -250l802 516v219l-798 543v-256l598 -383z" />
<glyph unicode="?" horiz-adv-x="1058" d="M41 1040q15 201 148 323t354 122q209 0 335 -107.5t126 -279.5q0 -109 -42 -183t-120 -145q-11 -10 -41.5 -37.5t-41 -38t-33 -34t-31 -38.5t-20.5 -38.5t-16 -48t-4 -52.5v-45h-268q0 71 10 128t23 94.5t42 76t51 60.5t65 61q5 4 27 23.5t29.5 27t25.5 26t25.5 31.5 t17.5 32.5t14 39.5t4 43q0 74 -49 121t-135 47q-207 0 -230 -209h-266zM377 0v305h285v-305h-285z" />
<glyph unicode="@" horiz-adv-x="1978" d="M123 541q0 174 52 323.5t141.5 255.5t208 181.5t252 112t272.5 36.5q178 0 328 -48t261 -139.5t173.5 -233t62.5 -318.5q0 -259 -130.5 -428.5t-334.5 -169.5q-96 0 -154.5 33t-83.5 116q-97 -156 -272 -156q-111 0 -189.5 56t-114.5 144.5t-36 199.5q0 143 50 258 t145 182.5t219 67.5q70 0 131 -33.5t92 -97.5l74 108h172q-64 -506 -76 -592v-14q0 -84 59 -84q68 0 122 57t82 150t28 203q0 268 -162 405t-444 137q-150 0 -279.5 -51.5t-222.5 -144t-146 -227t-53 -293.5q0 -185 71.5 -329t215.5 -229t342 -85q293 0 453 131l124 -136 q-104 -98 -241 -146t-342 -48q-261 0 -455 109t-294.5 300t-100.5 437zM809 518q0 -96 37.5 -150.5t101.5 -54.5q56 0 96 23t62 65.5t33 88t16 104.5q2 14 2 43q0 182 -149 182q-92 0 -145.5 -85t-53.5 -216z" />
<glyph unicode="A" horiz-adv-x="1370" d="M16 0l508 1456h326l508 -1456h-299l-115 348h-524l-119 -348h-285zM494 580h374l-184 608h-2z" />
<glyph unicode="B" horiz-adv-x="1341" d="M164 0v1456h543q516 0 516 -373q0 -115 -63 -200.5t-175 -120.5q137 -28 211 -120t74 -230q0 -196 -136 -304t-376 -108h-594zM459 229h223q141 0 215 47.5t74 155.5q0 205 -266 205h-246v-408zM459 852h219q129 0 192.5 45.5t63.5 142.5q0 101 -66.5 143t-193.5 42h-215 v-373z" />
<glyph unicode="C" horiz-adv-x="1374" d="M94 719q0 228 76 402t222.5 272t344.5 98q155 0 279 -61t203.5 -184t93.5 -292h-277q-17 133 -98.5 210t-200.5 77q-117 0 -200 -69.5t-121.5 -184t-38.5 -262.5q0 -110 22 -202t66 -162t115 -109t163 -39q127 0 206.5 87t94.5 239h279q-25 -274 -181 -429t-409 -155 q-200 0 -345.5 97t-219.5 268.5t-74 398.5z" />
<glyph unicode="D" horiz-adv-x="1456" d="M164 0v1456h477q342 0 530.5 -183.5t188.5 -535.5q0 -167 -44 -301t-131 -232t-223.5 -151t-314.5 -53h-483zM461 250h123q78 0 143 12t127.5 44.5t105.5 84.5t69 137t26 197q-1 255 -117 369t-371 114h-106v-958z" />
<glyph unicode="E" horiz-adv-x="1261" d="M145 0v1456h1033v-248h-738v-342h678v-239h-678v-377h746v-250h-1041z" />
<glyph unicode="F" horiz-adv-x="1200" d="M160 0v1456h983v-248h-688v-364h620v-242h-620v-602h-295z" />
<glyph unicode="G" horiz-adv-x="1443" d="M94 719q0 226 77 400t226.5 273t350.5 99q231 0 390.5 -131.5t182.5 -368.5h-281q-17 119 -93.5 185.5t-188.5 66.5q-122 0 -209.5 -69.5t-129.5 -185.5t-42 -265t41.5 -264.5t126.5 -184.5t203 -69q144 0 231 97.5t98 264.5h-323v226h573v-793h-199q-1 14 -13 83.5 t-13 82.5q-66 -100 -167 -150.5t-220 -50.5q-187 0 -329 98.5t-217 269t-75 386.5z" />
<glyph unicode="H" horiz-adv-x="1476" d="M164 0v1456h297v-577h557v577h297v-1456h-297v631h-553v-631h-301z" />
<glyph unicode="I" horiz-adv-x="606" d="M162 0v1456h284v-1456h-284z" />
<glyph unicode="J" horiz-adv-x="845" d="M51 -12v276q83 -20 133 -20q106 0 153.5 70t47.5 202v940h297l4 -932q0 -82 -4 -143.5t-15 -123t-30 -105t-50.5 -82t-75.5 -62t-105.5 -36.5t-139.5 -13q-112 0 -215 29z" />
<glyph unicode="K" horiz-adv-x="1384" d="M164 0v1456h289v-643l536 643h357l-562 -635l600 -821h-364l-453 664l-114 -138v-526h-289z" />
<glyph unicode="L" horiz-adv-x="1161" d="M160 0v1456h295v-1206h673v-250h-968z" />
<glyph unicode="M" horiz-adv-x="1779" d="M164 0v1456h405l328 -1065l315 1065h408v-1456h-254v1112l-340 -1112h-260l-344 1106l-2 -1106h-256z" />
<glyph unicode="N" horiz-adv-x="1486" d="M162 0v1456h342l563 -1055l2 1055h258v-1456h-340l-567 1059v-1059h-258z" />
<glyph unicode="O" horiz-adv-x="1486" d="M94 725q0 166 44.5 306.5t126.5 242.5t205 159.5t273 57.5q199 0 347 -100t224.5 -272.5t76.5 -393.5q0 -218 -76.5 -389t-225 -271t-346.5 -100q-199 0 -348 99.5t-225 270.5t-76 390zM375 729q0 -146 39.5 -260t124 -184t204.5 -70q121 0 206 70t124 184.5t39 261.5 q0 146 -39.5 259.5t-124 183t-203.5 69.5q-121 0 -206 -69.5t-124.5 -183.5t-39.5 -261z" />
<glyph unicode="P" horiz-adv-x="1294" d="M162 0v1456h553q252 0 391 -122.5t139 -342.5q0 -216 -131.5 -340.5t-390.5 -124.5h-262v-526h-299zM455 762h192q153 0 228 54t75 171q0 118 -74.5 171.5t-226.5 53.5h-194v-450z" />
<glyph unicode="Q" horiz-adv-x="1488" d="M96 725q0 220 77.5 392.5t226.5 273t348 100.5q196 0 343.5 -101t223.5 -273.5t76 -391.5q0 -328 -177 -541q68 -66 160 -161q-104 -109 -137 -146q-28 31 -174 176q-139 -84 -318 -84q-201 0 -349 98t-224 268t-76 390zM377 721q0 -148 39.5 -261.5t124.5 -182 t207 -68.5q86 0 137 33q-23 25 -73.5 75.5t-74.5 75.5q18 21 137 150q106 -110 158 -162q82 119 82 334q0 237 -94.5 381.5t-271.5 144.5q-121 0 -206.5 -70t-125 -185t-39.5 -265z" />
<glyph unicode="R" horiz-adv-x="1343" d="M162 0v1456h549q116 0 211.5 -22t171 -68.5t117.5 -126t42 -186.5q0 -142 -71 -236t-211 -129q125 -24 184.5 -117.5t75.5 -263.5q35 -224 67 -307h-307q-9 32 -47 307q-12 82 -27.5 128t-48.5 79t-83.5 44t-135.5 11h-188v-569h-299zM461 791h198q148 0 223.5 48 t75.5 165q0 110 -69.5 159t-214.5 49h-213v-421z" />
<glyph unicode="S" horiz-adv-x="1308" d="M49 477h303q1 -139 85 -207.5t227 -68.5q118 0 199 49.5t81 146.5q0 34 -9 60t-33.5 48t-49 36.5t-75 31.5t-90.5 28t-116 30q-263 66 -374 156.5t-111 267.5q0 137 76 237.5t199.5 149.5t277.5 49q257 0 410 -118t159 -355h-301q-14 239 -278 239q-108 0 -173 -48 t-65 -134q0 -67 39 -100q41 -35 197 -79q42 -12 149 -40q91 -23 158.5 -47.5t129.5 -61t100.5 -81.5t61.5 -108t23 -142q0 -207 -164.5 -329t-431.5 -122q-178 0 -312.5 56.5t-213 173.5t-78.5 282z" />
<glyph unicode="T" horiz-adv-x="1210" d="M27 1208v248h1157v-248h-402v-1208h-295v1208h-460z" />
<glyph unicode="U" horiz-adv-x="1409" d="M100 565v891h295v-885q0 -182 74.5 -269t237.5 -87q160 0 230.5 85t70.5 278v878h299v-889q0 -297 -153.5 -449.5t-448.5 -152.5q-297 0 -451 149.5t-154 450.5z" />
<glyph unicode="V" horiz-adv-x="1339" d="M18 1456h324l336 -1134h2l342 1134h311l-483 -1456h-356z" />
<glyph unicode="W" horiz-adv-x="1884" d="M29 1456h284l222 -1118h2l249 1118h324l240 -1122h2l229 1122h270l-338 -1456h-329l-242 1114h-2l-246 -1114h-332z" />
<glyph unicode="X" horiz-adv-x="1318" d="M6 0l481 756l-448 700h338l285 -485l294 485h318l-445 -698l482 -758h-344l-316 524l-319 -524h-326z" />
<glyph unicode="Y" horiz-adv-x="1312" d="M16 1456h326l324 -602l317 602h315l-497 -891v-565h-285v567z" />
<glyph unicode="Z" horiz-adv-x="1230" d="M53 0v246l770 962h-723v248h1057v-244l-741 -962h772v-250h-1135z" />
<glyph unicode="[" horiz-adv-x="712" d="M180 -279v1829h498v-211h-256v-1407h256v-211h-498z" />
<glyph unicode="\" horiz-adv-x="790" d="M-4 1491h235l553 -1503h-235z" />
<glyph unicode="]" horiz-adv-x="712" d="M35 -68h258v1407h-258v211h500v-1829h-500v211z" />
<glyph unicode="^" horiz-adv-x="1157" d="M88 717l383 753h217l381 -753h-291l-203 424l-202 -424h-285z" />
<glyph unicode="_" horiz-adv-x="1112" d="M20 -84h1072v-180h-1072v180z" />
<glyph unicode="`" horiz-adv-x="1009" d="M154 1507h292l293 -297h-252z" />
<glyph unicode="a" horiz-adv-x="1148" d="M59 289q0 68 20.5 120t64 90t99.5 64t140 44t171.5 29t207.5 19q-2 131 -43 185.5t-144 54.5q-186 0 -200 -170h-273q4 78 31 139.5t70.5 102t103.5 67t127 38t144 11.5q131 0 217 -29.5t135 -95.5t68.5 -155t19.5 -223v-580h-197l-41 125q-64 -83 -150 -116.5 t-202 -33.5q-162 0 -265.5 83t-103.5 231zM340 299q0 -67 47 -100t123 -33q72 0 122.5 20t77 57t37.5 80.5t11 100.5v74q-34 -6 -86.5 -13t-86 -11.5t-76 -13.5t-69.5 -21t-52 -30.5t-36.5 -46t-11.5 -63.5z" />
<glyph unicode="b" horiz-adv-x="1253" d="M143 0v1456h273l2 -538q102 163 313 163q195 0 319 -151.5t124 -403.5q0 -253 -122.5 -403t-320.5 -150q-109 0 -199 49t-129 146l-65 -168h-195zM399 530q0 -152 65 -248t183 -96q117 0 179.5 96t62.5 248q0 150 -65 246t-181 96q-117 0 -180.5 -96.5t-63.5 -245.5z" />
<glyph unicode="c" horiz-adv-x="1126" d="M88 518q0 252 136 409.5t368 157.5q194 0 321 -104t144 -301h-258q-12 91 -65 141.5t-136 50.5q-120 0 -180 -99t-60 -255q0 -147 59.5 -243.5t172.5 -96.5q88 0 144 58t71 161h258q-26 -204 -151 -318t-324 -114q-227 0 -363.5 152.5t-136.5 400.5z" />
<glyph unicode="d" horiz-adv-x="1253" d="M88 530q0 157 47 279.5t145.5 196t235.5 73.5q203 0 309 -164q0 90 1 270.5t1 270.5h291v-1456h-211q-37 99 -61 164h-2q-104 -189 -324 -189q-106 0 -189 42t-135.5 117.5t-80 175.5t-27.5 220zM350 524q0 -146 65 -242t181 -96q122 0 185 96.5t63 247.5 q0 152 -63.5 247t-184.5 95t-183.5 -97t-62.5 -251z" />
<glyph unicode="e" horiz-adv-x="1173" d="M84 524q0 246 142.5 402.5t367.5 156.5q118 0 210.5 -41.5t152.5 -117t92.5 -176.5t37.5 -224q5 -29 5 -71h-738q5 -137 69 -212t183 -75q81 0 137 41.5t76 114.5h260q-42 -177 -166.5 -268t-314.5 -91q-236 0 -375 153.5t-139 407.5zM356 633h467q-13 121 -72 182.5 t-159 61.5q-105 0 -165.5 -69t-70.5 -175z" />
<glyph unicode="f" horiz-adv-x="727" d="M31 852v203h172q1 15 2 45t2 45q8 165 88 245t250 80q69 0 145 -12v-207q-48 11 -90 11q-78 0 -102.5 -44t-24.5 -163h205v-203h-205v-852h-270v852h-172z" />
<glyph unicode="g" horiz-adv-x="1202" d="M78 551q0 146 51 264.5t155 192t246 73.5q104 0 185 -46t125 -134l69 154h189v-936q0 -131 -27 -226.5t-87 -164.5t-160 -103.5t-242 -34.5q-125 0 -225 36t-164.5 113t-71.5 187h270q11 -75 68 -112t141 -37q123 0 183 83q57 79 57 223v15l-2 95q-46 -86 -129 -129.5 t-189 -43.5q-207 0 -324.5 148t-117.5 383zM358 555q0 -140 59.5 -231t176.5 -91q115 0 177.5 89.5t62.5 228.5q0 140 -60.5 228.5t-177.5 88.5q-113 0 -175.5 -88.5t-62.5 -224.5z" />
<glyph unicode="h" horiz-adv-x="1212" d="M129 0v1456h270v-545h2q48 83 131.5 125.5t182.5 42.5q240 0 321 -178q49 -104 49 -301v-600h-270v578q0 150 -43.5 216t-142.5 66q-230 0 -230 -317v-543h-270z" />
<glyph unicode="i" horiz-adv-x="565" d="M147 0v1055h273v-1055h-273zM147 1206v250h273v-250h-273z" />
<glyph unicode="j" horiz-adv-x="575" d="M-31 -162q33 -8 66 -8q62 0 92.5 30.5t30.5 108.5v1086h270v-1061q0 -100 -15.5 -168t-53 -117.5t-103.5 -72.5t-166 -23q-55 0 -121 14v211zM158 1206v250h270v-250h-270z" />
<glyph unicode="k" horiz-adv-x="1181" d="M143 0v1456h271v-833l393 432h332l-406 -434l443 -621h-334l-303 475l-125 -131v-344h-271z" />
<glyph unicode="l" horiz-adv-x="581" d="M139 0v1456h273v-1456h-273z" />
<glyph unicode="m" horiz-adv-x="1802" d="M145 0v1055h187q17 -25 45 -72.5t41 -67.5h2q61 84 135 124t176 40q105 0 184.5 -45t118.5 -135q110 180 322 180q72 0 127.5 -16.5t92 -39.5t61.5 -69t38 -83.5t20 -105.5t8 -112.5t1 -126.5v-526h-252v584q0 58 -2 93.5t-11.5 75.5t-26.5 62t-48.5 36.5t-77.5 14.5 q-54 0 -93 -19t-60.5 -47.5t-34 -73.5t-16 -85t-3.5 -94v-547h-270v586q0 58 -3.5 98t-14 77t-29 58.5t-48.5 34t-73 12.5q-102 0 -154.5 -81t-52.5 -228v-557h-289z" />
<glyph unicode="n" horiz-adv-x="1212" d="M141 0v1055h170q14 -24 41 -74t41 -74h4q110 172 326 172q92 0 159 -22.5t108 -61.5t65 -102t32.5 -133t8.5 -166v-594h-269v625q0 241 -184 241q-119 0 -175 -74.5t-56 -261.5v-530h-271z" />
<glyph unicode="o" horiz-adv-x="1214" d="M68 524q0 252 143.5 406.5t386.5 154.5q240 0 383 -155t143 -406q0 -253 -142 -406t-384 -153q-244 0 -387 153t-143 406zM346 528q0 -159 65 -254.5t183 -95.5q121 0 187.5 94.5t66.5 251.5q0 158 -67 254t-187 96q-116 0 -182 -95.5t-66 -250.5z" />
<glyph unicode="p" horiz-adv-x="1253" d="M145 -379v1434h183q70 -132 73 -137h2q45 78 127.5 119.5t184.5 41.5q142 0 247.5 -74t158.5 -198.5t53 -282.5q0 -156 -52.5 -279.5t-156 -196.5t-242.5 -73q-35 0 -82 15q-145 23 -223 143q0 -85 -1 -255.5t-1 -256.5h-271zM397 526q0 -150 64 -244t186 -94 q117 0 176.5 93t59.5 241q0 157 -60.5 252.5t-179.5 95.5t-182.5 -98t-63.5 -246z" />
<glyph unicode="q" horiz-adv-x="1253" d="M88 526q0 158 52.5 282.5t157 198.5t245.5 74q100 0 184.5 -41t128.5 -120l57 135h203v-1436h-270l-2 518q-46 -80 -128.5 -121t-183.5 -41q-194 0 -319 149t-125 402zM377 520q0 -146 60.5 -239t176.5 -93q122 0 186 94.5t64 243.5t-65 247.5t-183 98.5 q-120 0 -179.5 -96t-59.5 -256z" />
<glyph unicode="r" horiz-adv-x="833" d="M137 0v1055h172l82 -187q115 211 338 211q35 0 74 -8v-250q-50 13 -92 13q-88 0 -147.5 -28t-93.5 -85t-48 -132.5t-14 -182.5v-406h-271z" />
<glyph unicode="s" horiz-adv-x="1083" d="M59 346h273q4 -93 65 -138.5t162 -45.5q84 0 139.5 33.5t55.5 95.5q0 61 -67.5 94t-235.5 68q-182 41 -274.5 112t-92.5 199q0 104 63 178t163.5 108.5t226.5 34.5q78 0 145 -11.5t125 -38t100 -66t67.5 -98.5t29.5 -134h-269q-6 80 -59 118t-141 38q-71 0 -120.5 -27 t-49.5 -80q0 -31 15.5 -53t51.5 -38t81 -29t116 -30l39 -9q94 -22 158 -46.5t114.5 -61t74 -88t23.5 -120.5q0 -113 -66 -191.5t-172 -114.5t-243 -36q-226 0 -359 93.5t-139 283.5z" />
<glyph unicode="t" horiz-adv-x="763" d="M35 854v201h176v174l270 119v-293h211v-201h-211v-479q0 -106 25 -138t102 -32q45 0 84 8v-215q-84 -12 -168 -12q-164 0 -238.5 67t-74.5 244v557h-176z" />
<glyph unicode="u" horiz-adv-x="1204" d="M129 457v598h250v-629q0 -119 45.5 -179.5t132.5 -60.5q120 0 177 75.5t57 258.5v535h272v-1055h-178q-78 135 -80 139q-104 -164 -324 -164q-113 0 -180 35t-111 107q-36 60 -48.5 141t-12.5 199z" />
<glyph unicode="v" horiz-adv-x="1077" d="M10 1055h291l240 -785l237 785h281l-361 -1055h-327z" />
<glyph unicode="w" horiz-adv-x="1581" d="M33 1055h260l170 -783h2l180 783h293l176 -783h2l176 783h254l-276 -1051h-303l-176 764h-3l-178 -764h-303z" />
<glyph unicode="x" horiz-adv-x="1089" d="M6 0l373 551l-346 504h315l197 -330l205 330h301l-344 -500l380 -555h-313l-233 373l-228 -373h-307z" />
<glyph unicode="y" horiz-adv-x="1124" d="M23 1055h294q213 -669 252 -795h2q41 132 122 397.5t122 397.5h281q-57 -148 -196.5 -550.5t-227.5 -615.5q-63 -147 -152 -211.5t-233 -64.5q-58 0 -152 16v213q70 -12 98 -12q75 0 125.5 50t61.5 118q-12 49 -35 111q-151 383 -362 946z" />
<glyph unicode="z" horiz-adv-x="1030" d="M59 0v205l572 641h-539v209h881v-201l-572 -643h607v-211h-949z" />
<glyph unicode="{" horiz-adv-x="729" d="M68 528v215q114 0 154 55t40 183v244q0 157 90.5 241t255.5 84h115v-207h-80q-149 0 -149 -141v-330q-2 -80 -46 -144t-131 -89v-4q87 -25 131 -91t46 -145v-329q0 -71 35.5 -106.5t113.5 -35.5h80v-207h-115q-165 0 -255.5 84t-90.5 240v246q0 125 -41 181t-153 56z" />
<glyph unicode="|" horiz-adv-x="557" d="M160 -279v1829h237v-1829h-237z" />
<glyph unicode="}" horiz-adv-x="729" d="M4 -72h82q72 0 111 37t39 105v329q0 79 44 145t132 91v4q-88 25 -132 89t-44 144v330q0 141 -150 141h-82v207h117q166 0 256 -83.5t90 -241.5q0 -35 -1 -122t-1 -122q0 -126 44.5 -182t149.5 -56v-215q-108 0 -151 -57t-43 -180q0 -35 1 -123t1 -123q0 -156 -90 -240 t-256 -84h-117v207z" />
<glyph unicode="~" horiz-adv-x="1304" d="M92 541q39 158 124.5 238.5t229.5 80.5q55 0 114.5 -21t101.5 -46.5t91 -46.5t85 -21q58 0 100 35t63 94q36 -17 105.5 -48.5t105.5 -47.5q-41 -157 -126.5 -237.5t-229.5 -80.5q-56 0 -116 22t-102 48t-90.5 48t-84.5 22q-58 0 -99.5 -37t-62.5 -99q-35 17 -104.5 49 t-104.5 48z" />
<glyph unicode="&#xa1;" horiz-adv-x="620" d="M156 -408l49 1008h201l36 -1008h-286zM160 750v299h276v-299h-276z" />
<glyph unicode="&#xa2;" d="M133 723q0 229 107.5 378.5t318.5 176.5v186h129v-184q120 -10 209.5 -68.5t136.5 -145.5t56 -192l-271 3q-3 62 -37 111t-94 63v-652q62 14 97 63.5t38 115.5h269q-11 -168 -114 -279t-290 -129v-182h-129v186q-111 12 -194.5 58.5t-133.5 120.5t-74 166.5t-24 203.5z M406 727q0 -57 6 -103.5t21.5 -93t47.5 -79.5t78 -48v644q-153 -46 -153 -320z" />
<glyph unicode="&#xa3;" horiz-adv-x="1196" d="M94 623v217h142q-11 146 -11 176q0 208 122.5 323t314.5 115q104 0 185.5 -31.5t133.5 -86.5t81 -125t34 -152l-254 2q-20 164 -172 164q-91 0 -137 -53t-46 -144q0 -31 11 -188h360v-217h-346q2 -29 2 -140t-12 -152q-17 -61 -68 -91h666v-240h-985q0 36 1 106.5 t1 106.5q80 37 107.5 96t27.5 176q0 89 -2 138h-156z" />
<glyph unicode="&#xa4;" horiz-adv-x="1241" d="M49 469q5 49 14 168h125q-2 23 -2 65q0 12 1 35t1 35h-139q5 49 14 168h142q18 105 61.5 195t112 162.5t169.5 113.5t224 41q166 0 270.5 -69t165.5 -205q-29 -21 -88 -62t-88 -61q-55 82 -116 118.5t-150 36.5q-114 0 -188 -71.5t-99 -198.5h451q-8 -27 -24.5 -83.5 t-24.5 -84.5h-422v-135h393q-32 -109 -51 -168h-322q25 -122 99 -192t186 -70q198 0 270 166l183 -105q-56 -146 -166 -222.5t-289 -76.5q-120 0 -219 38t-166.5 107t-110.5 158t-61 197h-156z" />
<glyph unicode="&#xa5;" d="M10 1419h293q124 -236 297 -571l295 571h283q-298 -545 -330 -604h229v-174h-346v-164h346v-174h-346v-303h-272v303h-334v174h334v164h-334v174h217q-176 319 -332 604z" />
<glyph unicode="&#xa6;" horiz-adv-x="577" d="M158 -178v688h262v-688h-262zM158 858v670h262v-670h-262z" />
<glyph unicode="&#xa7;" horiz-adv-x="1134" d="M98 621q0 163 176 266q-127 90 -127 252q0 150 123.5 244t311.5 94q101 0 183 -31t135 -84t83.5 -119.5t38.5 -142.5h-248q0 79 -50 120.5t-142 41.5q-88 0 -132 -34t-44 -93q0 -45 22 -75.5t82 -55.5q48 -28 111.5 -63t104 -57t90 -52t80 -53t62.5 -54.5t49.5 -62 t28.5 -70t11 -84.5q0 -182 -177 -287q125 -95 125 -250q0 -159 -116.5 -251.5t-305.5 -92.5q-97 0 -175.5 22.5t-139.5 69t-97 123t-42 178.5h252q9 -93 57.5 -136.5t138.5 -43.5q87 0 131.5 34.5t44.5 96.5q0 92 -106 135q-36 20 -88 47.5t-85 44.5t-76.5 42t-71.5 43 t-61.5 43t-54.5 47t-42.5 50.5t-33 58t-19 65t-7.5 74.5zM336 645q0 -48 20.5 -87.5t77 -80.5t91 -61t127.5 -68q20 -11 30 -16q57 13 94 48.5t37 92.5q0 125 -154 186q-11 6 -202 119q-52 -15 -86.5 -49t-34.5 -84z" />
<glyph unicode="&#xa8;" horiz-adv-x="702" d="M16 1266v252h252v-252h-252zM434 1266v252h252v-252h-252z" />
<glyph unicode="&#xa9;" horiz-adv-x="1652" d="M96 729q0 161 56.5 300t153.5 235.5t232 151t289 54.5q157 0 292.5 -54.5t231.5 -151.5t150.5 -235t54.5 -300q0 -163 -56 -302t-153 -235.5t-231.5 -151t-288.5 -54.5q-213 0 -379.5 93t-259 262.5t-92.5 387.5zM274 729q0 -259 153.5 -420.5t399.5 -161.5 q242 0 396.5 162.5t154.5 419.5q0 256 -154 418t-397 162q-246 0 -399.5 -161.5t-153.5 -418.5zM449 725q0 180 105 296t286 116q152 0 251 -89t99 -221l-215 2q-10 56 -45.5 92.5t-93.5 36.5q-46 0 -80 -19.5t-53.5 -52.5t-29 -73t-9.5 -86q0 -103 41.5 -168t128.5 -65 q62 0 99.5 35t43.5 96h215q-14 -143 -107 -226.5t-251 -83.5q-185 0 -285 114.5t-100 295.5z" />
<glyph unicode="&#xaa;" horiz-adv-x="626" d="M61 647q0 45 18 78.5t48 55t81.5 36t106.5 22t136 13.5q-2 72 -24.5 102.5t-78.5 30.5q-104 0 -112 -96h-150q4 105 76.5 153t185.5 48q140 0 192 -66t52 -215v-322h-109l-22 70q-62 -84 -195 -84q-91 0 -148 46t-57 128zM217 653q0 -73 94 -73q77 0 107.5 38.5 t30.5 104.5v41q-20 -4 -55.5 -8.5t-55.5 -7.5t-46.5 -10.5t-40.5 -17.5t-24 -27t-10 -40z" />
<glyph unicode="&#xab;" horiz-adv-x="1161" d="M113 565l307 -479l182 125l-217 354l223 367l-190 119zM590 565l305 -479l186 123l-219 356l219 367l-188 119z" />
<glyph unicode="&#xac;" horiz-adv-x="1286" d="M131 586v239h989v-563h-252v324h-737z" />
<glyph unicode="&#xad;" horiz-adv-x="872" d="M106 494v256h658v-256h-658z" />
<glyph unicode="&#xae;" horiz-adv-x="1357" d="M80 887q0 175 78.5 313t214.5 213.5t305 75.5q263 0 431.5 -168t168.5 -434q0 -133 -45.5 -245.5t-125 -190.5t-190.5 -122t-239 -44q-174 0 -310 75t-212 212.5t-76 314.5zM236 887q0 -210 121 -336.5t321 -126.5q199 0 321.5 127t122.5 336q0 210 -122 337.5 t-322 127.5q-199 0 -320.5 -127.5t-121.5 -337.5zM453 602v592h233q116 0 177 -51.5t61 -141.5q0 -118 -95 -167l109 -232h-162l-86 201h-88v-201h-149zM602 932h88q80 0 80 69q0 64 -86 64h-82v-133z" />
<glyph unicode="&#xaf;" horiz-adv-x="702" d="M45 1272v213h606v-213h-606z" />
<glyph unicode="&#xb0;" horiz-adv-x="817" d="M82 1149q0 135 90.5 226t235.5 91q141 0 234 -91t93 -226q0 -141 -94.5 -232.5t-232.5 -91.5q-139 0 -232.5 92.5t-93.5 231.5zM266 1149q0 -65 39.5 -106.5t102.5 -41.5q60 0 99.5 42t39.5 106q0 63 -39.5 102t-99.5 39q-63 0 -102.5 -39t-39.5 -102z" />
<glyph unicode="&#xb1;" horiz-adv-x="2770" d="M117 549v233h411v432h244v-432h414v-233h-414v-451h-244v451h-411zM1059 -12l551 1503h237l-551 -1503h-237zM1683 549v239h1000v-239h-1000z" />
<glyph unicode="&#xb2;" horiz-adv-x="604" d="M31 1245q13 113 80.5 183.5t195.5 70.5q119 0 188.5 -63t69.5 -172q0 -71 -35.5 -133.5t-107.5 -131.5q-9 -7 -83 -88.5t-85 -91.5h315v-135h-530v119q18 16 128 134.5t124 131.5q63 60 91 102t28 89q0 46 -28.5 76t-76.5 30q-105 0 -123 -121h-151z" />
<glyph unicode="&#xb3;" horiz-adv-x="604" d="M25 934h151q9 -123 125 -123q55 0 89 29t34 84q0 110 -129 110h-68v131h72q109 0 109 99q0 43 -27 70.5t-78 27.5q-113 0 -127 -107h-145q2 102 76.5 169t195.5 67q117 0 185.5 -60t68.5 -155q0 -56 -27.5 -101t-80.5 -69q62 -21 93 -69.5t31 -110.5q0 -114 -71.5 -179 t-198.5 -65q-131 0 -202 72t-76 180z" />
<glyph unicode="&#xb4;" horiz-adv-x="649" d="M70 1282l307 303l158 -158l-342 -258z" />
<glyph unicode="&#xb6;" horiz-adv-x="1359" d="M66 1020q0 161 97.5 276.5t268.5 141.5h731l-2 -1284h-237v1087h-187v-1087h-237v432q-203 10 -318.5 133t-115.5 301z" />
<glyph unicode="&#xb7;" horiz-adv-x="573" d="M127 520v324h301v-324h-301z" />
<glyph unicode="&#xb8;" horiz-adv-x="579" d="M94 -401l170 307h199l-156 -408z" />
<glyph unicode="&#xb9;" horiz-adv-x="604" d="M211 1247v152l182 125h125v-766h-147v594z" />
<glyph unicode="&#xba;" horiz-adv-x="782" d="M76 750q0 152 86 244.5t233 92.5q145 0 232.5 -93.5t87.5 -243.5q0 -153 -86.5 -245.5t-233.5 -92.5t-233 92.5t-86 245.5zM244 752q0 -96 39 -153.5t110 -57.5q74 0 114 56.5t40 152.5q0 95 -40.5 153t-113.5 58q-69 0 -109 -57.5t-40 -151.5z" />
<glyph unicode="&#xbb;" horiz-adv-x="1161" d="M111 209l219 356l-219 367l188 119l303 -486l-305 -479zM584 932l190 119l305 -486l-307 -479l-182 125l217 354z" />
<glyph unicode="&#xbc;" horiz-adv-x="1884" d="M453 1333v142l172 118h116v-721h-139v560zM637 0l584 1589h190l-584 -1589h-190zM1090 164v100l333 467h136v-448h94v-119h-94v-164h-140v164h-329zM1241 283h178v254z" />
<glyph unicode="&#xbd;" horiz-adv-x="2123" d="M471 1290v166l199 137h135v-835h-160v649zM655 0l584 1589h191l-584 -1589h-191zM1190 551q12 108 78.5 178t191.5 70q116 0 185 -62.5t69 -169.5q0 -69 -34.5 -129.5t-106.5 -130.5q-10 -8 -82.5 -88t-81.5 -88h307v-133h-520v117q18 16 126 132.5t122 129.5 q62 57 89.5 99t27.5 87q0 46 -27.5 75.5t-75.5 29.5q-104 0 -119 -117h-149z" />
<glyph unicode="&#xbe;" horiz-adv-x="1884" d="M201 1016h159q9 -131 134 -131q58 0 93.5 30.5t35.5 88.5q0 116 -138 116h-71v140h78q114 0 114 104q0 45 -29.5 74.5t-82.5 29.5q-117 0 -134 -114h-153q2 109 81 179.5t206 70.5q124 0 197 -64t73 -164q0 -59 -29.5 -106.5t-85.5 -71.5q65 -24 98 -75.5t33 -116.5 q0 -120 -74.5 -188t-209.5 -68q-139 0 -214.5 76t-80.5 190zM555 0l584 1589h190l-584 -1589h-190zM997 180v113l379 530h154v-510h106v-133h-106v-186h-160v186h-373zM1169 313h201v291z" />
<glyph unicode="&#xbf;" horiz-adv-x="1044" d="M31 -47q0 110 41 184t118 144q12 11 38.5 35t35.5 32.5t29 28.5t27 30.5l20 30t17.5 35t11 38t8.5 47.5t2 54h268q0 -45 -3 -83t-11.5 -70.5t-15.5 -57t-23 -50t-26.5 -41.5t-33 -39t-34.5 -35t-39.5 -37t-40.5 -37q-35 -33 -53.5 -53.5t-36 -58.5t-17.5 -81 q0 -74 49.5 -121t135.5 -47q206 0 229 209h266q-3 -195 -140.5 -319.5t-360.5 -124.5q-209 0 -335 107.5t-126 279.5zM373 743v308h282v-308h-282z" />
<glyph unicode="&#xc0;" horiz-adv-x="1316" d="M16 0l508 1456h326l508 -1456h-299l-115 348h-524l-119 -348h-285zM246 1894h293l292 -297h-251zM494 580h374l-184 608h-2z" />
<glyph unicode="&#xc1;" horiz-adv-x="1316" d="M16 0l508 1456h326l508 -1456h-299l-115 348h-524l-119 -348h-285zM494 580h374l-184 608h-2zM526 1710l308 303l157 -158l-342 -258z" />
<glyph unicode="&#xc2;" horiz-adv-x="1316" d="M16 0l508 1456h326l508 -1456h-299l-115 348h-524l-119 -348h-285zM317 1597l265 308h206l261 -308h-234l-129 187l-125 -187h-244zM494 580h374l-184 608h-2z" />
<glyph unicode="&#xc3;" horiz-adv-x="1316" d="M16 0l508 1456h326l508 -1456h-299l-115 348h-524l-119 -348h-285zM287 1679q25 100 87 153.5t154 53.5q46 0 94 -22t89.5 -44t72.5 -22q36 0 64.5 20t38.5 56l149 -66q-23 -100 -85 -153t-152 -53q-47 0 -96.5 22t-90.5 44t-69 22q-38 0 -66.5 -19.5t-40.5 -56.5z M494 580h374l-184 608h-2z" />
<glyph unicode="&#xc4;" horiz-adv-x="1316" d="M16 0l508 1456h326l508 -1456h-299l-115 348h-524l-119 -348h-285zM324 1602v251h251v-251h-251zM494 580h374l-184 608h-2zM741 1602v251h252v-251h-252z" />
<glyph unicode="&#xc5;" horiz-adv-x="1316" d="M10 0l520 1432q-94 68 -94 194q0 107 70.5 173.5t171.5 66.5q103 0 173.5 -66.5t70.5 -173.5q0 -117 -86 -186l524 -1440h-303l-105 309h-544l-107 -309h-291zM487 553h383l-192 567zM582 1626q0 -45 26.5 -72.5t69.5 -27.5t71.5 27.5t28.5 72.5q0 46 -28 73t-72 27 q-43 0 -69.5 -26.5t-26.5 -73.5z" />
<glyph unicode="&#xc6;" horiz-adv-x="2058" d="M0 0l756 1458h1216v-254h-665v-323h596v-254h-596v-373h686v-254h-967v403h-510l-201 -403h-315zM641 651h385v553h-113z" />
<glyph unicode="&#xc7;" horiz-adv-x="1366" d="M94 719q0 228 76 402t222.5 272t344.5 98q155 0 279 -61t203.5 -184t93.5 -292h-277q-17 133 -98.5 210t-200.5 77q-117 0 -200 -69.5t-121.5 -184t-38.5 -262.5q0 -110 22 -202t66 -162t115 -109t163 -39q127 0 206.5 87t94.5 239h279q-25 -274 -181 -429t-409 -155 q-200 0 -345.5 97t-219.5 268.5t-74 398.5zM487 -481l170 307h199l-156 -408z" />
<glyph unicode="&#xc8;" horiz-adv-x="1239" d="M145 0v1456h1033v-248h-738v-342h678v-239h-678v-377h746v-250h-1041zM268 1894h293l293 -297h-252z" />
<glyph unicode="&#xc9;" horiz-adv-x="1239" d="M145 0v1456h1033v-248h-738v-342h678v-239h-678v-377h746v-250h-1041zM365 1710l307 303l157 -158l-342 -258z" />
<glyph unicode="&#xca;" horiz-adv-x="1239" d="M145 0v1456h1033v-248h-738v-342h678v-239h-678v-377h746v-250h-1041zM279 1597l264 308h207l260 -308h-234l-129 187l-125 -187h-243z" />
<glyph unicode="&#xcb;" horiz-adv-x="1239" d="M145 0v1456h1033v-248h-738v-342h678v-239h-678v-377h746v-250h-1041zM285 1602v251h252v-251h-252zM702 1602v251h252v-251h-252z" />
<glyph unicode="&#xcc;" horiz-adv-x="530" d="M-147 1894h292l293 -297h-252zM162 0v1456h284v-1456h-284z" />
<glyph unicode="&#xcd;" horiz-adv-x="530" d="M133 1710l307 303l158 -158l-342 -258zM162 0v1456h284v-1456h-284z" />
<glyph unicode="&#xce;" horiz-adv-x="530" d="M-76 1597l264 308h207l260 -308h-233l-129 187l-125 -187h-244zM162 0v1456h284v-1456h-284z" />
<glyph unicode="&#xcf;" horiz-adv-x="530" d="M-70 1602v251h252v-251h-252zM162 0v1456h284v-1456h-284zM348 1602v251h252v-251h-252z" />
<glyph unicode="&#xd0;" horiz-adv-x="1474" d="M31 647v213h147v596h555q139 0 248.5 -37t183 -101.5t122 -156.5t70 -198t21.5 -230q0 -126 -23 -234t-74.5 -201t-128.5 -158.5t-190 -102.5t-253 -37h-531v647h-147zM463 248h211q101 0 176 26t119.5 68.5t71 107t35.5 130.5t9 151q0 79 -8 144t-31.5 129t-61.5 107 t-102 70t-149 27h-270v-348h289v-213h-289v-399z" />
<glyph unicode="&#xd1;" horiz-adv-x="1468" d="M162 0v1456h342l563 -1055l2 1055h258v-1456h-340l-567 1059v-1059h-258zM362 1679q25 100 87.5 153.5t154.5 53.5q46 0 94 -22t89.5 -44t72.5 -22q36 0 64.5 20t38.5 56l149 -66q-23 -100 -85.5 -153t-152.5 -53q-47 0 -96.5 22t-90.5 44t-69 22q-82 0 -106 -76z" />
<glyph unicode="&#xd2;" horiz-adv-x="1460" d="M94 725q0 166 44.5 306.5t126.5 242.5t205 159.5t273 57.5q199 0 347 -100t224.5 -272.5t76.5 -393.5q0 -218 -76.5 -389t-225 -271t-346.5 -100q-199 0 -348 99.5t-225 270.5t-76 390zM360 1927h293l293 -297h-252zM375 729q0 -146 39.5 -260t124 -184t204.5 -70 q121 0 206 70t124 184.5t39 261.5q0 146 -39.5 259.5t-124 183t-203.5 69.5q-121 0 -206 -69.5t-124.5 -183.5t-39.5 -261z" />
<glyph unicode="&#xd3;" horiz-adv-x="1460" d="M94 725q0 166 44.5 306.5t126.5 242.5t205 159.5t273 57.5q199 0 347 -100t224.5 -272.5t76.5 -393.5q0 -218 -76.5 -389t-225 -271t-346.5 -100q-199 0 -348 99.5t-225 270.5t-76 390zM375 729q0 -146 39.5 -260t124 -184t204.5 -70q121 0 206 70t124 184.5t39 261.5 q0 146 -39.5 259.5t-124 183t-203.5 69.5q-121 0 -206 -69.5t-124.5 -183.5t-39.5 -261zM539 1743l307 303l158 -158l-342 -258z" />
<glyph unicode="&#xd4;" horiz-adv-x="1460" d="M94 725q0 166 44.5 306.5t126.5 242.5t205 159.5t273 57.5q199 0 347 -100t224.5 -272.5t76.5 -393.5q0 -218 -76.5 -389t-225 -271t-346.5 -100q-199 0 -348 99.5t-225 270.5t-76 390zM375 729q0 -146 39.5 -260t124 -184t204.5 -70q121 0 206 70t124 184.5t39 261.5 q0 146 -39.5 259.5t-124 183t-203.5 69.5q-121 0 -206 -69.5t-124.5 -183.5t-39.5 -261zM391 1630l264 307h207l260 -307h-233l-129 187l-125 -187h-244z" />
<glyph unicode="&#xd5;" horiz-adv-x="1460" d="M94 725q0 166 44.5 306.5t126.5 242.5t205 159.5t273 57.5q199 0 347 -100t224.5 -272.5t76.5 -393.5q0 -218 -76.5 -389t-225 -271t-346.5 -100q-199 0 -348 99.5t-225 270.5t-76 390zM360 1712q25 100 87.5 153.5t154.5 53.5q46 0 94 -22t89.5 -44t72.5 -22 q36 0 64.5 20t38.5 56l149 -66q-23 -100 -85.5 -153.5t-152.5 -53.5q-47 0 -96.5 22t-90.5 44t-69 22q-82 0 -106 -75zM375 729q0 -146 39.5 -260t124 -184t204.5 -70q121 0 206 70t124 184.5t39 261.5q0 146 -39.5 259.5t-124 183t-203.5 69.5q-121 0 -206 -69.5 t-124.5 -183.5t-39.5 -261z" />
<glyph unicode="&#xd6;" horiz-adv-x="1460" d="M94 725q0 166 44.5 306.5t126.5 242.5t205 159.5t273 57.5q199 0 347 -100t224.5 -272.5t76.5 -393.5q0 -218 -76.5 -389t-225 -271t-346.5 -100q-199 0 -348 99.5t-225 270.5t-76 390zM375 729q0 -146 39.5 -260t124 -184t204.5 -70q121 0 206 70t124 184.5t39 261.5 q0 146 -39.5 259.5t-124 183t-203.5 69.5q-121 0 -206 -69.5t-124.5 -183.5t-39.5 -261zM397 1634v252h252v-252h-252zM815 1634v252h252v-252h-252z" />
<glyph unicode="&#xd7;" horiz-adv-x="1308" d="M137 297l355 356l-355 357l162 159l354 -354l357 354l161 -159l-354 -357l354 -356l-161 -162l-357 357l-354 -357z" />
<glyph unicode="&#xd8;" horiz-adv-x="1486" d="M94 727q0 188 42.5 330t142.5 246q177 186 464 186q157 0 287 -62q14 26 43 76.5t43 75.5q20 -12 43 -25t51 -28t43 -23q-12 -20 -42.5 -74t-47.5 -83q126 -114 178 -262.5t52 -356.5q0 -165 -40.5 -302t-119 -239.5t-204 -159.5t-286.5 -57q-168 0 -311 70l-98 -172 q-20 12 -43 25t-51 28t-43 23q21 36 58.5 105t45.5 83q-113 103 -160 251t-47 345zM385 727q0 -223 64 -338q76 135 226 405.5t226 405.5q-70 37 -158 37q-79 0 -141.5 -27.5t-102.5 -73.5t-66 -112t-37 -139t-11 -158zM561 268q76 -49 182 -49q357 0 357 508q0 256 -78 367 q-77 -137 -230.5 -413t-230.5 -413z" />
<glyph unicode="&#xd9;" horiz-adv-x="1404" d="M100 565v891h295v-885q0 -182 74.5 -269t237.5 -87q160 0 230.5 85t70.5 278v878h299v-889q0 -297 -153.5 -449.5t-448.5 -152.5q-297 0 -451 149.5t-154 450.5zM332 1894h293l293 -297h-252z" />
<glyph unicode="&#xda;" horiz-adv-x="1404" d="M100 565v891h295v-885q0 -182 74.5 -269t237.5 -87q160 0 230.5 85t70.5 278v878h299v-889q0 -297 -153.5 -449.5t-448.5 -152.5q-297 0 -451 149.5t-154 450.5zM489 1710l308 303l157 -158l-342 -258z" />
<glyph unicode="&#xdb;" horiz-adv-x="1404" d="M100 565v891h295v-885q0 -182 74.5 -269t237.5 -87q160 0 230.5 85t70.5 278v878h299v-889q0 -297 -153.5 -449.5t-448.5 -152.5q-297 0 -451 149.5t-154 450.5zM362 1597l265 308h207l260 -308h-234l-129 187l-125 -187h-244z" />
<glyph unicode="&#xdc;" horiz-adv-x="1404" d="M100 565v891h295v-885q0 -182 74.5 -269t237.5 -87q160 0 230.5 85t70.5 278v878h299v-889q0 -297 -153.5 -449.5t-448.5 -152.5q-297 0 -451 149.5t-154 450.5zM369 1602v251h252v-251h-252zM786 1602v251h252v-251h-252z" />
<glyph unicode="&#xdd;" horiz-adv-x="1198" d="M16 1456h326l324 -602l317 602h315l-497 -891v-565h-285v567zM406 1710l307 303l157 -158l-342 -258z" />
<glyph unicode="&#xde;" horiz-adv-x="1263" d="M160 0v1458h282v-248h238q142 0 247.5 -35t167 -99t90.5 -145t29 -181q0 -107 -29.5 -192t-90.5 -151t-165 -101.5t-245 -35.5h-242v-270h-282zM442 512h232q142 0 200 59t58 174q0 109 -59.5 165.5t-200.5 56.5h-230v-455z" />
<glyph unicode="&#xdf;" horiz-adv-x="1241" d="M164 0l2 1044q0 207 129.5 325t337.5 118q200 0 323 -98.5t123 -274.5q0 -100 -46 -177t-134 -118q139 -36 211 -139t72 -256q0 -93 -28 -173t-82 -140t-139.5 -94.5t-193.5 -34.5q-111 0 -204 24q12 148 20 217q66 -16 135 -16q223 0 223 239q0 127 -71.5 182.5 t-212.5 55.5h-51v215h53q87 0 133.5 47.5t46.5 140.5q0 84 -46.5 133.5t-135.5 49.5q-203 0 -203 -256v-1014h-262z" />
<glyph unicode="&#xe0;" horiz-adv-x="1120" d="M59 289q0 68 20.5 120t64 90t99.5 64t140 44t171.5 29t207.5 19q-2 131 -43 185.5t-144 54.5q-186 0 -200 -170h-273q4 78 31 139.5t70.5 102t103.5 67t127 38t144 11.5q131 0 217 -29.5t135 -95.5t68.5 -155t19.5 -223v-580h-197l-41 125q-64 -83 -150 -116.5 t-202 -33.5q-162 0 -265.5 83t-103.5 231zM188 1473h293l293 -297h-252zM340 299q0 -67 47 -100t123 -33q72 0 122.5 20t77 57t37.5 80.5t11 100.5v74q-34 -6 -86.5 -13t-86 -11.5t-76 -13.5t-69.5 -21t-52 -30.5t-36.5 -46t-11.5 -63.5z" />
<glyph unicode="&#xe1;" horiz-adv-x="1120" d="M59 289q0 68 20.5 120t64 90t99.5 64t140 44t171.5 29t207.5 19q-2 131 -43 185.5t-144 54.5q-186 0 -200 -170h-273q4 78 31 139.5t70.5 102t103.5 67t127 38t144 11.5q131 0 217 -29.5t135 -95.5t68.5 -155t19.5 -223v-580h-197l-41 125q-64 -83 -150 -116.5 t-202 -33.5q-162 0 -265.5 83t-103.5 231zM340 299q0 -67 47 -100t123 -33q72 0 122.5 20t77 57t37.5 80.5t11 100.5v74q-34 -6 -86.5 -13t-86 -11.5t-76 -13.5t-69.5 -21t-52 -30.5t-36.5 -46t-11.5 -63.5zM367 1288l307 303l157 -157l-342 -258z" />
<glyph unicode="&#xe2;" horiz-adv-x="1120" d="M59 289q0 68 20.5 120t64 90t99.5 64t140 44t171.5 29t207.5 19q-2 131 -43 185.5t-144 54.5q-186 0 -200 -170h-273q4 78 31 139.5t70.5 102t103.5 67t127 38t144 11.5q131 0 217 -29.5t135 -95.5t68.5 -155t19.5 -223v-580h-197l-41 125q-64 -83 -150 -116.5 t-202 -33.5q-162 0 -265.5 83t-103.5 231zM199 1176l264 307h207l260 -307h-234l-129 186l-125 -186h-243zM340 299q0 -67 47 -100t123 -33q72 0 122.5 20t77 57t37.5 80.5t11 100.5v74q-34 -6 -86.5 -13t-86 -11.5t-76 -13.5t-69.5 -21t-52 -30.5t-36.5 -46t-11.5 -63.5z " />
<glyph unicode="&#xe3;" horiz-adv-x="1120" d="M59 289q0 68 20.5 120t64 90t99.5 64t140 44t171.5 29t207.5 19q-2 131 -43 185.5t-144 54.5q-186 0 -200 -170h-273q4 78 31 139.5t70.5 102t103.5 67t127 38t144 11.5q131 0 217 -29.5t135 -95.5t68.5 -155t19.5 -223v-580h-197l-41 125q-64 -83 -150 -116.5 t-202 -33.5q-162 0 -265.5 83t-103.5 231zM168 1257q25 100 87.5 153.5t154.5 53.5q46 0 94 -22t89.5 -44t72.5 -22q36 0 64 20t38 56l150 -66q-23 -100 -85.5 -153t-152.5 -53q-47 0 -96.5 22t-90.5 44t-69 22q-38 0 -66.5 -19.5t-40.5 -56.5zM340 299q0 -67 47 -100 t123 -33q72 0 122.5 20t77 57t37.5 80.5t11 100.5v74q-34 -6 -86.5 -13t-86 -11.5t-76 -13.5t-69.5 -21t-52 -30.5t-36.5 -46t-11.5 -63.5z" />
<glyph unicode="&#xe4;" horiz-adv-x="1120" d="M59 289q0 68 20.5 120t64 90t99.5 64t140 44t171.5 29t207.5 19q-2 131 -43 185.5t-144 54.5q-186 0 -200 -170h-273q4 78 31 139.5t70.5 102t103.5 67t127 38t144 11.5q131 0 217 -29.5t135 -95.5t68.5 -155t19.5 -223v-580h-197l-41 125q-64 -83 -150 -116.5 t-202 -33.5q-162 0 -265.5 83t-103.5 231zM215 1180v252h252v-252h-252zM340 299q0 -67 47 -100t123 -33q72 0 122.5 20t77 57t37.5 80.5t11 100.5v74q-34 -6 -86.5 -13t-86 -11.5t-76 -13.5t-69.5 -21t-52 -30.5t-36.5 -46t-11.5 -63.5zM633 1180v252h252v-252h-252z" />
<glyph unicode="&#xe5;" horiz-adv-x="1120" d="M59 289q0 68 20.5 120t64 90t99.5 64t140 44t171.5 29t207.5 19q-2 131 -43 185.5t-144 54.5q-186 0 -200 -170h-273q4 78 31 139.5t70.5 102t103.5 67t127 38t144 11.5q131 0 217 -29.5t135 -95.5t68.5 -155t19.5 -223v-580h-197l-41 125q-64 -83 -150 -116.5 t-202 -33.5q-162 0 -265.5 83t-103.5 231zM317 1430q0 107 70.5 173t171.5 66q103 0 173.5 -66t70.5 -173t-70.5 -172.5t-173.5 -65.5q-102 0 -172 65.5t-70 172.5zM340 299q0 -67 47 -100t123 -33q72 0 122.5 20t77 57t37.5 80.5t11 100.5v74q-34 -6 -86.5 -13t-86 -11.5 t-76 -13.5t-69.5 -21t-52 -30.5t-36.5 -46t-11.5 -63.5zM463 1430q0 -46 26.5 -73.5t69.5 -27.5t71.5 28t28.5 73q0 46 -28 73t-72 27q-43 0 -69.5 -26.5t-26.5 -73.5z" />
<glyph unicode="&#xe6;" horiz-adv-x="1800" d="M66 299q0 73 25 129.5t59.5 93t96 62t110 38t128 19t122.5 7.5t120 1h4v74q0 166 -170 166q-86 0 -132.5 -29t-55.5 -96h-256q20 168 137 250t311 82q220 0 332 -146q120 146 336 146q232 0 356.5 -148.5t124.5 -404.5v-86h-717q5 -127 63.5 -202t174.5 -75 q161 0 201 144h264q-24 -170 -149 -261.5t-312 -91.5q-136 0 -241.5 53t-157.5 152q-128 -203 -389 -203q-167 0 -276 83.5t-109 242.5zM334 307q0 -58 42 -89.5t109 -31.5q119 0 182.5 74t63.5 203q-197 -8 -233 -12q-116 -15 -147 -70q-17 -29 -17 -74zM999 645h449 q-2 113 -55.5 177.5t-163.5 64.5q-109 0 -167 -67t-63 -175z" />
<glyph unicode="&#xe7;" horiz-adv-x="1099" d="M88 518q0 252 136 409.5t368 157.5q194 0 321 -104t144 -301h-258q-12 91 -65 141.5t-136 50.5q-120 0 -180 -99t-60 -255q0 -147 59.5 -243.5t172.5 -96.5q88 0 144 58t71 161h258q-26 -204 -151 -318t-324 -114q-227 0 -363.5 152.5t-136.5 400.5zM354 -438l170 307 h199l-156 -408z" />
<glyph unicode="&#xe8;" horiz-adv-x="1136" d="M84 524q0 246 142.5 402.5t367.5 156.5q118 0 210.5 -41.5t152.5 -117t92.5 -176.5t37.5 -224q5 -29 5 -71h-738q5 -137 69 -212t183 -75q81 0 137 41.5t76 114.5h260q-42 -177 -166.5 -268t-314.5 -91q-236 0 -375 153.5t-139 407.5zM197 1473h292l293 -297h-252z M356 633h467q-13 121 -72 182.5t-159 61.5q-105 0 -165.5 -69t-70.5 -175z" />
<glyph unicode="&#xe9;" horiz-adv-x="1136" d="M84 524q0 246 142.5 402.5t367.5 156.5q118 0 210.5 -41.5t152.5 -117t92.5 -176.5t37.5 -224q5 -29 5 -71h-738q5 -137 69 -212t183 -75q81 0 137 41.5t76 114.5h260q-42 -177 -166.5 -268t-314.5 -91q-236 0 -375 153.5t-139 407.5zM356 633h467q-13 121 -72 182.5 t-159 61.5q-105 0 -165.5 -69t-70.5 -175zM416 1288l307 303l158 -157l-342 -258z" />
<glyph unicode="&#xea;" horiz-adv-x="1136" d="M84 524q0 246 142.5 402.5t367.5 156.5q118 0 210.5 -41.5t152.5 -117t92.5 -176.5t37.5 -224q5 -29 5 -71h-738q5 -137 69 -212t183 -75q81 0 137 41.5t76 114.5h260q-42 -177 -166.5 -268t-314.5 -91q-236 0 -375 153.5t-139 407.5zM227 1176l265 307h206l260 -307 h-233l-129 186l-125 -186h-244zM356 633h467q-13 121 -72 182.5t-159 61.5q-105 0 -165.5 -69t-70.5 -175z" />
<glyph unicode="&#xeb;" horiz-adv-x="1136" d="M84 524q0 246 142.5 402.5t367.5 156.5q118 0 210.5 -41.5t152.5 -117t92.5 -176.5t37.5 -224q5 -29 5 -71h-738q5 -137 69 -212t183 -75q81 0 137 41.5t76 114.5h260q-42 -177 -166.5 -268t-314.5 -91q-236 0 -375 153.5t-139 407.5zM233 1180v252h252v-252h-252z M356 633h467q-13 121 -72 182.5t-159 61.5q-105 0 -165.5 -69t-70.5 -175zM651 1180v252h252v-252h-252z" />
<glyph unicode="&#xec;" horiz-adv-x="497" d="M-143 1442h293l292 -297h-252zM147 0v1055h273v-1055h-273z" />
<glyph unicode="&#xed;" horiz-adv-x="497" d="M96 1257l307 304l158 -158l-342 -258zM147 0v1055h273v-1055h-273z" />
<glyph unicode="&#xee;" horiz-adv-x="497" d="M-92 1145l264 307h207l260 -307h-233l-130 186l-124 -186h-244zM147 0v1055h273v-1055h-273z" />
<glyph unicode="&#xef;" horiz-adv-x="497" d="M-86 1149v252h252v-252h-252zM147 0v1055h273v-1055h-273zM332 1149v252h252v-252h-252z" />
<glyph unicode="&#xf0;" horiz-adv-x="1206" d="M90 500q0 246 129 394t352 148q57 0 97 -13.5t69 -49.5q-42 155 -168 227q-35 -14 -99.5 -39t-86.5 -34q-12 29 -53 124l116 43q-59 45 -131 86l148 111q124 -54 205 -104q26 10 79 29.5t80 29.5q7 -18 54 -125q-19 -7 -54.5 -21t-40.5 -16q161 -144 246 -319 q86 -174 86 -414q0 -268 -136 -427t-380 -159q-241 0 -376.5 146t-135.5 383zM367 508q0 -66 12.5 -121t39.5 -99t73.5 -68.5t109.5 -24.5q62 0 109 25t74.5 69.5t41 100t13.5 122.5q0 311 -244 311q-116 0 -172.5 -88t-56.5 -227z" />
<glyph unicode="&#xf1;" horiz-adv-x="1179" d="M141 0v1055h170q14 -24 41 -74t41 -74h4q110 172 326 172q92 0 159 -22.5t108 -61.5t65 -102t32.5 -133t8.5 -166v-594h-269v625q0 241 -184 241q-119 0 -175 -74.5t-56 -261.5v-530h-271zM219 1257q25 100 87.5 153.5t154.5 53.5q46 0 94 -22t89.5 -44t72.5 -22 q36 0 64 20t38 56l150 -66q-23 -100 -85.5 -153t-152.5 -53q-47 0 -96.5 22t-90.5 44t-69 22q-82 0 -106 -76z" />
<glyph unicode="&#xf2;" horiz-adv-x="1177" d="M68 524q0 252 143.5 406.5t386.5 154.5q240 0 383 -155t143 -406q0 -253 -142 -406t-384 -153q-244 0 -387 153t-143 406zM197 1473h292l293 -297h-252zM346 528q0 -159 65 -254.5t183 -95.5q121 0 187.5 94.5t66.5 251.5q0 158 -67 254t-187 96q-116 0 -182 -95.5 t-66 -250.5z" />
<glyph unicode="&#xf3;" horiz-adv-x="1177" d="M68 524q0 252 143.5 406.5t386.5 154.5q240 0 383 -155t143 -406q0 -253 -142 -406t-384 -153q-244 0 -387 153t-143 406zM346 528q0 -159 65 -254.5t183 -95.5q121 0 187.5 94.5t66.5 251.5q0 158 -67 254t-187 96q-116 0 -182 -95.5t-66 -250.5zM416 1288l307 303 l158 -157l-342 -258z" />
<glyph unicode="&#xf4;" horiz-adv-x="1177" d="M68 524q0 252 143.5 406.5t386.5 154.5q240 0 383 -155t143 -406q0 -253 -142 -406t-384 -153q-244 0 -387 153t-143 406zM248 1176l264 307h207l260 -307h-234l-129 186l-124 -186h-244zM346 528q0 -159 65 -254.5t183 -95.5q121 0 187.5 94.5t66.5 251.5q0 158 -67 254 t-187 96q-116 0 -182 -95.5t-66 -250.5z" />
<glyph unicode="&#xf5;" horiz-adv-x="1177" d="M68 524q0 252 143.5 406.5t386.5 154.5q240 0 383 -155t143 -406q0 -253 -142 -406t-384 -153q-244 0 -387 153t-143 406zM217 1257q25 100 87.5 153.5t154.5 53.5q46 0 94 -22t89.5 -44t72.5 -22q36 0 64 20t38 56l150 -66q-23 -100 -85.5 -153t-152.5 -53 q-47 0 -96.5 22t-90.5 44t-69 22q-82 0 -106 -76zM346 528q0 -159 65 -254.5t183 -95.5q121 0 187.5 94.5t66.5 251.5q0 158 -67 254t-187 96q-116 0 -182 -95.5t-66 -250.5z" />
<glyph unicode="&#xf6;" horiz-adv-x="1177" d="M68 524q0 252 143.5 406.5t386.5 154.5q240 0 383 -155t143 -406q0 -253 -142 -406t-384 -153q-244 0 -387 153t-143 406zM254 1180v252h252v-252h-252zM346 528q0 -159 65 -254.5t183 -95.5q121 0 187.5 94.5t66.5 251.5q0 158 -67 254t-187 96q-116 0 -182 -95.5 t-66 -250.5zM672 1180v252h252v-252h-252z" />
<glyph unicode="&#xf7;" horiz-adv-x="1269" d="M141 537v239h987v-239h-987zM500 117v280h270v-280h-270zM500 913v281h270v-281h-270z" />
<glyph unicode="&#xf8;" horiz-adv-x="1214" d="M88 535q0 255 137 408t381 153q113 0 203 -37l74 129h170l-115 -203q188 -147 188 -450q0 -258 -137.5 -411t-382.5 -153q-124 0 -219 39q-61 -104 -86 -147h-158q15 26 59 112t58 113q-89 89 -130.5 192.5t-41.5 254.5zM367 504q0 -97 32 -172q245 435 293 522 q-40 16 -86 16q-125 0 -182 -92t-57 -243v-31zM506 217q41 -20 100 -20q67 0 115 26.5t75 74.5t39.5 106.5t12.5 130.5q0 136 -43 215q-50 -89 -149.5 -266.5t-149.5 -266.5z" />
<glyph unicode="&#xf9;" horiz-adv-x="1169" d="M129 457v598h250v-629q0 -119 45.5 -179.5t132.5 -60.5q120 0 177 75.5t57 258.5v535h272v-1055h-178q-78 135 -80 139q-104 -164 -324 -164q-113 0 -180 35t-111 107q-36 60 -48.5 141t-12.5 199zM213 1444h293l293 -297h-252z" />
<glyph unicode="&#xfa;" horiz-adv-x="1169" d="M129 457v598h250v-629q0 -119 45.5 -179.5t132.5 -60.5q120 0 177 75.5t57 258.5v535h272v-1055h-178q-78 135 -80 139q-104 -164 -324 -164q-113 0 -180 35t-111 107q-36 60 -48.5 141t-12.5 199zM371 1260l307 303l158 -158l-342 -258z" />
<glyph unicode="&#xfb;" horiz-adv-x="1169" d="M129 457v598h250v-629q0 -119 45.5 -179.5t132.5 -60.5q120 0 177 75.5t57 258.5v535h272v-1055h-178q-78 135 -80 139q-104 -164 -324 -164q-113 0 -180 35t-111 107q-36 60 -48.5 141t-12.5 199zM244 1147l264 307h207l260 -307h-234l-129 186l-125 -186h-243z" />
<glyph unicode="&#xfc;" horiz-adv-x="1169" d="M129 457v598h250v-629q0 -119 45.5 -179.5t132.5 -60.5q120 0 177 75.5t57 258.5v535h272v-1055h-178q-78 135 -80 139q-104 -164 -324 -164q-113 0 -180 35t-111 107q-36 60 -48.5 141t-12.5 199zM250 1151v252h252v-252h-252zM668 1151v252h252v-252h-252z" />
<glyph unicode="&#xfd;" horiz-adv-x="1030" d="M23 1055h294q213 -669 252 -795h2q41 132 122 397.5t122 397.5h281q-57 -148 -196.5 -550.5t-227.5 -615.5q-63 -147 -152 -211.5t-233 -64.5q-58 0 -152 16v213q70 -12 98 -12q75 0 125.5 50t61.5 118q-12 49 -35 111q-151 383 -362 946zM322 1257l307 304l157 -158 l-342 -258z" />
<glyph unicode="&#xfe;" horiz-adv-x="1245" d="M143 -401v1871h271v-516q48 70 129 106t174 36q110 0 195.5 -44t137.5 -122t78.5 -178.5t26.5 -219.5q0 -155 -48.5 -280t-152 -203t-247.5 -78q-197 0 -293 133v-505h-271zM406 528q0 -335 239 -335q116 0 174 92t58 247q0 158 -56 250t-174 92q-125 0 -183 -89 t-58 -240v-17z" />
<glyph unicode="&#xff;" horiz-adv-x="1030" d="M23 1055h294q213 -669 252 -795h2q41 132 122 397.5t122 397.5h281q-57 -148 -196.5 -550.5t-227.5 -615.5q-63 -147 -152 -211.5t-233 -64.5q-58 0 -152 16v213q70 -12 98 -12q75 0 125.5 50t61.5 118q-12 49 -35 111q-151 383 -362 946zM180 1149v252h252v-252h-252z M598 1149v252h252v-252h-252z" />
<glyph unicode="&#x152;" horiz-adv-x="2142" d="M102 729q0 125 22 235.5t70 207.5t120 166.5t177.5 110t235.5 40.5q205 0 320 -109v76h1001v-282h-690v-279h627v-283h-627v-329h710v-283h-1021v74q-135 -105 -320 -105q-132 0 -238 40t-177.5 109.5t-119 167t-69 207.5t-21.5 236zM428 729q0 -79 6.5 -143t26.5 -128.5 t53 -108t88.5 -70.5t130.5 -27q86 0 147.5 32t96 91.5t51 131.5t19.5 165v67q-1 77 -7.5 137.5t-27 124t-53.5 105.5t-90.5 69t-135.5 27q-75 0 -131 -27.5t-89 -70.5t-52.5 -107.5t-26 -127t-6.5 -140.5z" />
<glyph unicode="&#x153;" horiz-adv-x="1908" d="M92 537q0 167 58 293.5t176 200t282 73.5q229 0 363 -164q60 77 152.5 120.5t205.5 43.5q234 0 363 -149.5t129 -399.5l-2 -109h-697q10 -102 63 -166.5t144 -64.5q73 0 116.5 35.5t65.5 107.5h295q-29 -191 -154 -289t-319 -98q-214 0 -364 164q-143 -164 -361 -164 q-127 0 -226 42t-162 118t-95.5 179t-32.5 227zM403 537q0 -308 205 -308q202 0 209 306q0 311 -209 311q-205 0 -205 -309zM1124 666h398q-20 196 -197 196q-89 0 -140.5 -54t-60.5 -142z" />
<glyph unicode="&#x178;" horiz-adv-x="1198" d="M16 1456h326l324 -602l317 602h315l-497 -891v-565h-285v567zM264 1602v251h252v-251h-252zM682 1602v251h252v-251h-252z" />
<glyph unicode="&#x2c6;" horiz-adv-x="763" d="M41 1196l264 307h207l260 -307h-233l-129 186l-125 -186h-244z" />
<glyph unicode="&#x2dc;" horiz-adv-x="770" d="M14 1323q25 100 87.5 153.5t154.5 53.5q46 0 94 -22t89.5 -44t72.5 -22q36 0 64 20t38 56l150 -66q-23 -100 -85.5 -153.5t-152.5 -53.5q-47 0 -96.5 22t-90.5 44t-69 22q-82 0 -106 -76z" />
<glyph unicode="&#x2000;" horiz-adv-x="1023" />
<glyph unicode="&#x2001;" horiz-adv-x="2046" />
<glyph unicode="&#x2002;" horiz-adv-x="1023" />
<glyph unicode="&#x2003;" horiz-adv-x="2046" />
<glyph unicode="&#x2004;" horiz-adv-x="682" />
<glyph unicode="&#x2005;" horiz-adv-x="511" />
<glyph unicode="&#x2006;" horiz-adv-x="341" />
<glyph unicode="&#x2007;" horiz-adv-x="341" />
<glyph unicode="&#x2008;" horiz-adv-x="255" />
<glyph unicode="&#x2009;" horiz-adv-x="409" />
<glyph unicode="&#x200a;" horiz-adv-x="113" />
<glyph unicode="&#x2010;" horiz-adv-x="872" d="M106 494v256h658v-256h-658z" />
<glyph unicode="&#x2011;" horiz-adv-x="872" d="M106 494v256h658v-256h-658z" />
<glyph unicode="&#x2012;" horiz-adv-x="872" d="M106 494v256h658v-256h-658z" />
<glyph unicode="&#x2013;" horiz-adv-x="1185" d="M61 496v252h1063v-252h-1063z" />
<glyph unicode="&#x2014;" horiz-adv-x="2199" d="M61 496v249h2077v-249h-2077z" />
<glyph unicode="&#x2018;" horiz-adv-x="520" d="M115 893v285q0 142 48 229t177 141l72 -118q-83 -38 -112.5 -89.5t-29.5 -138.5h146v-309h-301z" />
<glyph unicode="&#x2019;" horiz-adv-x="499" d="M113 1145v309h301v-285q0 -142 -48.5 -229t-177.5 -141l-71 119q82 38 111.5 89t29.5 138h-145z" />
<glyph unicode="&#x201a;" horiz-adv-x="499" d="M113 0v309h301v-284q0 -142 -48.5 -229.5t-177.5 -141.5l-71 119q82 38 111.5 89t29.5 138h-145z" />
<glyph unicode="&#x201c;" horiz-adv-x="921" d="M88 893v285q0 142 48 229t177 141l72 -118q-82 -38 -111.5 -89.5t-29.5 -138.5h145v-309h-301zM508 893v285q0 142 48 229t177 141l72 -118q-82 -38 -111.5 -89.5t-29.5 -138.5h145v-309h-301z" />
<glyph unicode="&#x201d;" horiz-adv-x="901" d="M88 1147v309h301v-285q0 -142 -48 -229t-177 -141l-72 119q82 38 111.5 89t29.5 138h-145zM508 1147v309h301v-285q0 -142 -48 -229t-177 -141l-72 119q82 38 111.5 89t29.5 138h-145z" />
<glyph unicode="&#x201e;" horiz-adv-x="901" d="M88 0v309h301v-284q0 -142 -48 -229.5t-177 -141.5l-72 119q82 38 111.5 89t29.5 138h-145zM508 0v309h301v-284q0 -142 -48 -229.5t-177 -141.5l-72 119q82 38 111.5 89t29.5 138h-145z" />
<glyph unicode="&#x2022;" horiz-adv-x="851" d="M127 672q0 127 86 212t213 85q126 0 211.5 -85t85.5 -212q0 -128 -85.5 -213.5t-211.5 -85.5q-127 0 -213 85.5t-86 213.5z" />
<glyph unicode="&#x2026;" horiz-adv-x="2021" d="M147 0v315h295v-315h-295zM862 0v315h295v-315h-295zM1581 0v315h295v-315h-295z" />
<glyph unicode="&#x202f;" horiz-adv-x="409" />
<glyph unicode="&#x2039;" horiz-adv-x="677" d="M76 569l309 482l193 -95l-246 -385l237 -381l-186 -104z" />
<glyph unicode="&#x203a;" horiz-adv-x="677" d="M78 956l246 -385l-238 -381l186 -104l308 483l-310 482z" />
<glyph unicode="&#x205f;" horiz-adv-x="511" />
<glyph unicode="&#x20ac;" horiz-adv-x="1241" d="M49 469q5 49 14 168h125q-2 23 -2 65q0 12 1 35t1 35h-139q5 49 14 168h142q18 105 61.5 195t112 162.5t169.5 113.5t224 41q166 0 270.5 -69t165.5 -205q-29 -21 -88 -62t-88 -61q-55 82 -116 118.5t-150 36.5q-114 0 -188 -71.5t-99 -198.5h451q-8 -27 -24.5 -83.5 t-24.5 -84.5h-422v-135h393q-32 -109 -51 -168h-322q25 -122 99 -192t186 -70q198 0 270 166l183 -105q-56 -146 -166 -222.5t-289 -76.5q-120 0 -219 38t-166.5 107t-110.5 158t-61 197h-156z" />
<glyph unicode="&#x2122;" horiz-adv-x="1820" d="M31 1282v176h676v-176h-240v-625h-199v625h-237zM807 657v801h258l188 -545l189 545h252v-801h-189v521l-176 -510h-158l-176 508v-519h-188z" />
<glyph unicode="&#x25fc;" horiz-adv-x="1054" d="M0 0v1055h1055v-1055h-1055z" />
<glyph unicode="&#xfb01;" horiz-adv-x="1038" d="M31 852v203h172q1 15 2 45t2 45q8 165 88 245t250 80q69 0 145 -12v-207q-48 11 -90 11q-78 0 -102.5 -44t-24.5 -163h205v-203h-205v-852h-270v852h-172zM745 0v1055h273v-1055h-273z" />
<glyph unicode="&#xfb02;" horiz-adv-x="1095" d="M31 852v203h172q1 15 2 45t2 45q8 165 88 245t250 80q69 0 145 -12v-207q-48 11 -90 11q-78 0 -102.5 -44t-24.5 -163h205v-203h-205v-852h-270v852h-172zM827 0v1456h273v-1456h-273z" />
</font>
</defs>
</svg>
